<svg width="120" height="120" viewBox="0 0 120 120" fill="none" xmlns="http://www.w3.org/2000/svg">
<path d="M95.3553 24.6447C87.2664 16.5558 76.6484 11.4852 65.2728 10.2788C53.8972 9.07245 42.4518 11.8033 32.8463 18.0158C23.2408 24.2282 16.056 33.5466 12.4906 44.4162C8.92519 55.2858 9.1948 67.0493 13.2545 77.7441C17.3141 88.439 24.9183 97.4184 34.7983 103.184C44.6784 108.95 56.2368 111.154 67.5453 109.427C78.8537 107.701 89.2282 102.149 96.938 93.6984C104.648 85.2474 109.227 74.4082 109.911 62.9893" stroke="#EFEFEF" stroke-width="15" stroke-linecap="round"/>
<path d="M105.527 31.4878C106.299 34.4203 103.655 37.1117 100.709 36.3914L83.902 32.2819C80.888 31.545 79.8242 27.806 81.9989 25.5929L94.4022 12.97C96.5769 10.7569 100.334 11.7549 101.124 14.7555L105.527 31.4878Z" fill="#EFEFEF"/>
</svg>
